<?xml version="1.0" encoding="UTF-8" standalone="no"?>
<svg xmlns="http://www.w3.org/2000/svg" width="512" height="512" viewBox="0 0 512 512" fill="none">
  <circle cx="256" cy="256" r="240" fill="#10B981" fill-opacity="0.1" stroke="#10B981" stroke-width="16"/>
  <circle cx="256" cy="256" r="180" fill="white" stroke="#10B981" stroke-width="8"/>
  <path d="M256 76C256 76 150 180 150 256C150 332 196 392 256 392C316 392 362 332 362 256C362 180 256 76 256 76Z" fill="#10B981" fill-opacity="0.3" stroke="#10B981" stroke-width="8"/>
  <circle cx="256" cy="256" r="20" fill="#f97316"/>
  <path d="M260 230C260 230 290 180 320 210C350 240 330 290 290 290" stroke="#f97316" stroke-width="8" stroke-linecap="round"/>
  <path d="M252 230C252 230 222 180 192 210C162 240 182 290 222 290" stroke="#10B981" stroke-width="8" stroke-linecap="round"/>
</svg>